M48
;DRILL file {Pcbnew (2013-07-07 BZR 4022)-stable} date 2013/11/02 22:19:31
;FORMAT={2:4/ absolute / inch / suppress leading zeros}
FMAT,2
INCH,TZ
T1C0.032
T2C0.039
T3C0.040
T4C0.050
%
G90
G05
M72
T1
X15500Y-17000
X17500Y-17000
X18000Y-27000
X18500Y-23000
X18500Y-25000
X19000Y-27000
X20000Y-27000
X21000Y-27000
X21500Y-11500
X21500Y-13000
X21500Y-14000
X21500Y-15000
X21500Y-16000
X23000Y-14000
X23000Y-15000
X23000Y-27000
X24000Y-27000
X24500Y-11500
X24500Y-13000
X24500Y-14000
X24500Y-15000
X24500Y-16000
X25000Y-27000
X26000Y-18000
X26000Y-23000
X26000Y-25000
X26000Y-27000
X26500Y-14500
X26500Y-15500
X28000Y-11500
X28000Y-14500
X28000Y-18000
X28000Y-27000
X28500Y-16500
X29000Y-12500
X29000Y-15500
X29000Y-27000
X29500Y-16500
X30000Y-13000
X30000Y-27000
X30500Y-14000
X31000Y-23000
X31000Y-25000
X31000Y-27000
X32000Y-13000
X32000Y-14000
X32000Y-15000
X32000Y-16000
X33500Y-14000
X33500Y-15000
X33500Y-27000
X35000Y-13000
X35000Y-14000
X35000Y-15000
X35000Y-16000
X38500Y-27000
T3
X18500Y-28500
X19500Y-28500
X20500Y-28500
X23500Y-28500
X24500Y-28500
X25500Y-28500
X28500Y-28500
X29500Y-28500
X30500Y-28500
X33500Y-28500
X34500Y-28500
X35500Y-28500
X38500Y-28500
X39500Y-28500
X40500Y-28500
T4
X21000Y-18000
X21000Y-25000
X23500Y-18000
X23500Y-25000
T2
X15650Y-12866G85X15650Y-13654
G05
X17894Y-12079G85X17107Y-12079
G05
X17894Y-14441G85X17107Y-14441
G05
T0
M30
