G04 (created by PCBNEW (2013-07-07 BZR 4022)-stable) date 2013/11/02 22:19:29*
%MOIN*%
G04 Gerber Fmt 3.4, Leading zero omitted, Abs format*
%FSLAX34Y34*%
G01*
G70*
G90*
G04 APERTURE LIST*
%ADD10C,0.00590551*%
%ADD11C,0.009*%
%ADD12C,0.055*%
%ADD13C,0.07*%
%ADD14C,0.1378*%
%ADD15C,0.00984252*%
G04 APERTURE END LIST*
G54D10*
G54D11*
X38732Y-22464D02*
X38732Y-22378D01*
X38753Y-22335D01*
X38796Y-22292D01*
X38882Y-22271D01*
X39032Y-22271D01*
X39117Y-22292D01*
X39160Y-22335D01*
X39182Y-22378D01*
X39182Y-22464D01*
X39160Y-22507D01*
X39117Y-22550D01*
X39032Y-22571D01*
X38882Y-22571D01*
X38796Y-22550D01*
X38753Y-22507D01*
X38732Y-22464D01*
X38882Y-22078D02*
X39332Y-22078D01*
X38903Y-22078D02*
X38882Y-22035D01*
X38882Y-21950D01*
X38903Y-21907D01*
X38925Y-21885D01*
X38967Y-21864D01*
X39096Y-21864D01*
X39139Y-21885D01*
X39160Y-21907D01*
X39182Y-21950D01*
X39182Y-22035D01*
X39160Y-22078D01*
X39053Y-21692D02*
X39053Y-21478D01*
X39182Y-21735D02*
X38732Y-21585D01*
X39182Y-21435D01*
X39182Y-21285D02*
X38882Y-21285D01*
X38925Y-21285D02*
X38903Y-21264D01*
X38882Y-21221D01*
X38882Y-21157D01*
X38903Y-21114D01*
X38946Y-21092D01*
X39182Y-21092D01*
X38946Y-21092D02*
X38903Y-21071D01*
X38882Y-21028D01*
X38882Y-20964D01*
X38903Y-20921D01*
X38946Y-20900D01*
X39182Y-20900D01*
X38882Y-20685D02*
X39332Y-20685D01*
X38903Y-20685D02*
X38882Y-20642D01*
X38882Y-20557D01*
X38903Y-20514D01*
X38925Y-20492D01*
X38967Y-20471D01*
X39096Y-20471D01*
X39139Y-20492D01*
X39160Y-20514D01*
X39182Y-20557D01*
X39182Y-20642D01*
X39160Y-20685D01*
X39010Y-20278D02*
X39010Y-19935D01*
X39182Y-19721D02*
X38732Y-19721D01*
X38732Y-19550D01*
X38753Y-19507D01*
X38775Y-19485D01*
X38817Y-19464D01*
X38882Y-19464D01*
X38925Y-19485D01*
X38946Y-19507D01*
X38967Y-19550D01*
X38967Y-19721D01*
X38732Y-19314D02*
X39182Y-19207D01*
X38860Y-19121D01*
X39182Y-19035D01*
X38732Y-18928D01*
X39182Y-18757D02*
X38732Y-18757D01*
X39053Y-18607D01*
X38732Y-18457D01*
X39182Y-18457D01*
X38882Y-17964D02*
X38882Y-17792D01*
X39182Y-17899D02*
X38796Y-17899D01*
X38753Y-17878D01*
X38732Y-17835D01*
X38732Y-17792D01*
X39182Y-17578D02*
X39160Y-17621D01*
X39139Y-17642D01*
X39096Y-17664D01*
X38967Y-17664D01*
X38925Y-17642D01*
X38903Y-17621D01*
X38882Y-17578D01*
X38882Y-17514D01*
X38903Y-17471D01*
X38925Y-17449D01*
X38967Y-17428D01*
X39096Y-17428D01*
X39139Y-17449D01*
X39160Y-17471D01*
X39182Y-17514D01*
X39182Y-17578D01*
X39182Y-17235D02*
X38882Y-17235D01*
X38967Y-17235D02*
X38925Y-17214D01*
X38903Y-17192D01*
X38882Y-17149D01*
X38882Y-17107D01*
X39053Y-16635D02*
X39053Y-16421D01*
X39182Y-16678D02*
X38732Y-16528D01*
X39182Y-16378D01*
X39160Y-16250D02*
X39182Y-16207D01*
X39182Y-16121D01*
X39160Y-16078D01*
X39117Y-16057D01*
X39096Y-16057D01*
X39053Y-16078D01*
X39032Y-16121D01*
X39032Y-16185D01*
X39010Y-16228D01*
X38967Y-16250D01*
X38946Y-16250D01*
X38903Y-16228D01*
X38882Y-16185D01*
X38882Y-16121D01*
X38903Y-16078D01*
X39182Y-15671D02*
X38946Y-15671D01*
X38903Y-15692D01*
X38882Y-15735D01*
X38882Y-15821D01*
X38903Y-15864D01*
X39160Y-15671D02*
X39182Y-15714D01*
X39182Y-15821D01*
X39160Y-15864D01*
X39117Y-15885D01*
X39075Y-15885D01*
X39032Y-15864D01*
X39010Y-15821D01*
X39010Y-15714D01*
X38989Y-15671D01*
X39182Y-15457D02*
X38732Y-15457D01*
X39182Y-15264D02*
X38946Y-15264D01*
X38903Y-15285D01*
X38882Y-15328D01*
X38882Y-15392D01*
X38903Y-15435D01*
X38925Y-15457D01*
X39182Y-15049D02*
X38882Y-15049D01*
X38732Y-15049D02*
X38753Y-15071D01*
X38775Y-15049D01*
X38753Y-15028D01*
X38732Y-15049D01*
X38775Y-15049D01*
X39010Y-14835D02*
X39010Y-14492D01*
X39160Y-14299D02*
X39182Y-14257D01*
X39182Y-14171D01*
X39160Y-14128D01*
X39117Y-14107D01*
X39096Y-14107D01*
X39053Y-14128D01*
X39032Y-14171D01*
X39032Y-14235D01*
X39010Y-14278D01*
X38967Y-14299D01*
X38946Y-14299D01*
X38903Y-14278D01*
X38882Y-14235D01*
X38882Y-14171D01*
X38903Y-14128D01*
X39182Y-13721D02*
X38946Y-13721D01*
X38903Y-13742D01*
X38882Y-13785D01*
X38882Y-13871D01*
X38903Y-13914D01*
X39160Y-13721D02*
X39182Y-13764D01*
X39182Y-13871D01*
X39160Y-13914D01*
X39117Y-13935D01*
X39075Y-13935D01*
X39032Y-13914D01*
X39010Y-13871D01*
X39010Y-13764D01*
X38989Y-13721D01*
X39182Y-13507D02*
X38882Y-13507D01*
X38732Y-13507D02*
X38753Y-13528D01*
X38775Y-13507D01*
X38753Y-13485D01*
X38732Y-13507D01*
X38775Y-13507D01*
X38775Y-12971D02*
X38753Y-12949D01*
X38732Y-12907D01*
X38732Y-12799D01*
X38753Y-12757D01*
X38775Y-12735D01*
X38817Y-12714D01*
X38860Y-12714D01*
X38925Y-12735D01*
X39182Y-12992D01*
X39182Y-12714D01*
X38732Y-12435D02*
X38732Y-12392D01*
X38753Y-12349D01*
X38775Y-12328D01*
X38817Y-12307D01*
X38903Y-12285D01*
X39010Y-12285D01*
X39096Y-12307D01*
X39139Y-12328D01*
X39160Y-12349D01*
X39182Y-12392D01*
X39182Y-12435D01*
X39160Y-12478D01*
X39139Y-12499D01*
X39096Y-12521D01*
X39010Y-12542D01*
X38903Y-12542D01*
X38817Y-12521D01*
X38775Y-12499D01*
X38753Y-12478D01*
X38732Y-12435D01*
X39182Y-11857D02*
X39182Y-12114D01*
X39182Y-11985D02*
X38732Y-11985D01*
X38796Y-12028D01*
X38839Y-12071D01*
X38860Y-12114D01*
X38732Y-11707D02*
X38732Y-11428D01*
X38903Y-11578D01*
X38903Y-11514D01*
X38925Y-11471D01*
X38946Y-11449D01*
X38989Y-11428D01*
X39096Y-11428D01*
X39139Y-11449D01*
X39160Y-11471D01*
X39182Y-11514D01*
X39182Y-11642D01*
X39160Y-11685D01*
X39139Y-11707D01*
X39666Y-21692D02*
X39666Y-21842D01*
X39902Y-21842D02*
X39452Y-21842D01*
X39452Y-21628D01*
X39902Y-21264D02*
X39666Y-21264D01*
X39623Y-21285D01*
X39602Y-21328D01*
X39602Y-21414D01*
X39623Y-21457D01*
X39880Y-21264D02*
X39902Y-21307D01*
X39902Y-21414D01*
X39880Y-21457D01*
X39837Y-21478D01*
X39795Y-21478D01*
X39752Y-21457D01*
X39730Y-21414D01*
X39730Y-21307D01*
X39709Y-21264D01*
X39902Y-20985D02*
X39880Y-21028D01*
X39837Y-21049D01*
X39452Y-21049D01*
X39902Y-20749D02*
X39880Y-20792D01*
X39837Y-20814D01*
X39452Y-20814D01*
X39495Y-20257D02*
X39473Y-20235D01*
X39452Y-20192D01*
X39452Y-20085D01*
X39473Y-20042D01*
X39495Y-20021D01*
X39537Y-20000D01*
X39580Y-20000D01*
X39645Y-20021D01*
X39902Y-20278D01*
X39902Y-20000D01*
X39452Y-19721D02*
X39452Y-19678D01*
X39473Y-19635D01*
X39495Y-19614D01*
X39537Y-19592D01*
X39623Y-19571D01*
X39730Y-19571D01*
X39816Y-19592D01*
X39859Y-19614D01*
X39880Y-19635D01*
X39902Y-19678D01*
X39902Y-19721D01*
X39880Y-19764D01*
X39859Y-19785D01*
X39816Y-19807D01*
X39730Y-19828D01*
X39623Y-19828D01*
X39537Y-19807D01*
X39495Y-19785D01*
X39473Y-19764D01*
X39452Y-19721D01*
X39902Y-19142D02*
X39902Y-19400D01*
X39902Y-19271D02*
X39452Y-19271D01*
X39516Y-19314D01*
X39559Y-19357D01*
X39580Y-19400D01*
X39452Y-18992D02*
X39452Y-18714D01*
X39623Y-18864D01*
X39623Y-18800D01*
X39645Y-18757D01*
X39666Y-18735D01*
X39709Y-18714D01*
X39816Y-18714D01*
X39859Y-18735D01*
X39880Y-18757D01*
X39902Y-18800D01*
X39902Y-18928D01*
X39880Y-18971D01*
X39859Y-18992D01*
X39880Y-18500D02*
X39902Y-18500D01*
X39945Y-18521D01*
X39966Y-18542D01*
X39452Y-18028D02*
X39452Y-17771D01*
X39902Y-17900D02*
X39452Y-17900D01*
X39902Y-17428D02*
X39666Y-17428D01*
X39623Y-17450D01*
X39602Y-17492D01*
X39602Y-17578D01*
X39623Y-17621D01*
X39880Y-17428D02*
X39902Y-17471D01*
X39902Y-17578D01*
X39880Y-17621D01*
X39837Y-17642D01*
X39795Y-17642D01*
X39752Y-17621D01*
X39730Y-17578D01*
X39730Y-17471D01*
X39709Y-17428D01*
X39902Y-17214D02*
X39452Y-17214D01*
X39902Y-17021D02*
X39666Y-17021D01*
X39623Y-17042D01*
X39602Y-17085D01*
X39602Y-17150D01*
X39623Y-17192D01*
X39645Y-17214D01*
X39902Y-16807D02*
X39602Y-16807D01*
X39452Y-16807D02*
X39473Y-16828D01*
X39495Y-16807D01*
X39473Y-16785D01*
X39452Y-16807D01*
X39495Y-16807D01*
X39902Y-16592D02*
X39602Y-16592D01*
X39687Y-16592D02*
X39645Y-16571D01*
X39623Y-16550D01*
X39602Y-16507D01*
X39602Y-16464D01*
X39902Y-16250D02*
X39880Y-16292D01*
X39859Y-16314D01*
X39816Y-16335D01*
X39687Y-16335D01*
X39645Y-16314D01*
X39623Y-16292D01*
X39602Y-16250D01*
X39602Y-16185D01*
X39623Y-16142D01*
X39645Y-16121D01*
X39687Y-16100D01*
X39816Y-16100D01*
X39859Y-16121D01*
X39880Y-16142D01*
X39902Y-16185D01*
X39902Y-16250D01*
X39902Y-15564D02*
X39452Y-15564D01*
X39666Y-15564D02*
X39666Y-15307D01*
X39902Y-15307D02*
X39452Y-15307D01*
X39902Y-14900D02*
X39666Y-14900D01*
X39623Y-14921D01*
X39602Y-14964D01*
X39602Y-15050D01*
X39623Y-15092D01*
X39880Y-14900D02*
X39902Y-14942D01*
X39902Y-15050D01*
X39880Y-15092D01*
X39837Y-15114D01*
X39795Y-15114D01*
X39752Y-15092D01*
X39730Y-15050D01*
X39730Y-14942D01*
X39709Y-14900D01*
X39880Y-14707D02*
X39902Y-14664D01*
X39902Y-14578D01*
X39880Y-14535D01*
X39837Y-14514D01*
X39816Y-14514D01*
X39773Y-14535D01*
X39752Y-14578D01*
X39752Y-14642D01*
X39730Y-14685D01*
X39687Y-14707D01*
X39666Y-14707D01*
X39623Y-14685D01*
X39602Y-14642D01*
X39602Y-14578D01*
X39623Y-14535D01*
X39902Y-14321D02*
X39452Y-14321D01*
X39902Y-14128D02*
X39666Y-14128D01*
X39623Y-14150D01*
X39602Y-14192D01*
X39602Y-14257D01*
X39623Y-14300D01*
X39645Y-14321D01*
X39902Y-13914D02*
X39602Y-13914D01*
X39452Y-13914D02*
X39473Y-13935D01*
X39495Y-13914D01*
X39473Y-13892D01*
X39452Y-13914D01*
X39495Y-13914D01*
X39602Y-13742D02*
X39602Y-13507D01*
X39902Y-13742D01*
X39902Y-13507D01*
X39602Y-13142D02*
X39902Y-13142D01*
X39602Y-13335D02*
X39837Y-13335D01*
X39880Y-13314D01*
X39902Y-13271D01*
X39902Y-13207D01*
X39880Y-13164D01*
X39859Y-13142D01*
X39902Y-12928D02*
X39602Y-12928D01*
X39645Y-12928D02*
X39623Y-12907D01*
X39602Y-12864D01*
X39602Y-12800D01*
X39623Y-12757D01*
X39666Y-12735D01*
X39902Y-12735D01*
X39666Y-12735D02*
X39623Y-12714D01*
X39602Y-12671D01*
X39602Y-12607D01*
X39623Y-12564D01*
X39666Y-12542D01*
X39902Y-12542D01*
X39880Y-12157D02*
X39902Y-12200D01*
X39902Y-12285D01*
X39880Y-12328D01*
X39837Y-12350D01*
X39666Y-12350D01*
X39623Y-12328D01*
X39602Y-12285D01*
X39602Y-12200D01*
X39623Y-12157D01*
X39666Y-12135D01*
X39709Y-12135D01*
X39752Y-12350D01*
G54D12*
X24500Y-11500D03*
X21500Y-11500D03*
X29000Y-12500D03*
X29000Y-15500D03*
X28000Y-11500D03*
X28000Y-14500D03*
X26500Y-15500D03*
X26500Y-14500D03*
X30000Y-13000D03*
X30500Y-14000D03*
X26000Y-18000D03*
X33500Y-27000D03*
X23000Y-15000D03*
X23000Y-14000D03*
X33500Y-14000D03*
X33500Y-15000D03*
X28500Y-16500D03*
X29500Y-16500D03*
G54D13*
X21000Y-25000D03*
X21000Y-18000D03*
G54D12*
X28000Y-27000D03*
X29000Y-27000D03*
X18000Y-27000D03*
X19000Y-27000D03*
X31000Y-27000D03*
X30000Y-27000D03*
X21000Y-27000D03*
X20000Y-27000D03*
G54D13*
X23500Y-25000D03*
X23500Y-18000D03*
G54D12*
X23000Y-27000D03*
X24000Y-27000D03*
X26000Y-27000D03*
X25000Y-27000D03*
X28000Y-18000D03*
X38500Y-27000D03*
X21500Y-13000D03*
X21500Y-14000D03*
X21500Y-15000D03*
X21500Y-16000D03*
X24500Y-16000D03*
X24500Y-15000D03*
X24500Y-14000D03*
X24500Y-13000D03*
X32000Y-13000D03*
X32000Y-14000D03*
X32000Y-15000D03*
X32000Y-16000D03*
X35000Y-16000D03*
X35000Y-15000D03*
X35000Y-14000D03*
X35000Y-13000D03*
G54D13*
X19500Y-28500D03*
X20500Y-28500D03*
X18500Y-28500D03*
X29500Y-28500D03*
X30500Y-28500D03*
X28500Y-28500D03*
X34500Y-28500D03*
X35500Y-28500D03*
X33500Y-28500D03*
X24500Y-28500D03*
X25500Y-28500D03*
X23500Y-28500D03*
X39500Y-28500D03*
X40500Y-28500D03*
X38500Y-28500D03*
G54D12*
X18500Y-25000D03*
X18500Y-23000D03*
X26000Y-25000D03*
X26000Y-23000D03*
X31000Y-25000D03*
X31000Y-23000D03*
X17500Y-17000D03*
X15500Y-17000D03*
G54D14*
X17500Y-14441D03*
X17500Y-12079D03*
X15650Y-13260D03*
G54D15*
X22000Y-16000D02*
X23000Y-15000D01*
X21500Y-16000D02*
X22000Y-16000D01*
X25000Y-27000D02*
X24500Y-27500D01*
X24500Y-28500D02*
X24500Y-27500D01*
X24500Y-27500D02*
X24000Y-27000D01*
X20000Y-27000D02*
X19500Y-27500D01*
X19500Y-28500D02*
X19500Y-27500D01*
X19500Y-27500D02*
X19000Y-27000D01*
X23500Y-15000D02*
X24500Y-16000D01*
X23000Y-15000D02*
X23500Y-15000D01*
X15650Y-16850D02*
X15650Y-13260D01*
X15500Y-17000D02*
X15650Y-16850D01*
X21500Y-14000D02*
X21050Y-14449D01*
X16830Y-12079D02*
X17500Y-12079D01*
X15650Y-13260D02*
X16830Y-12079D01*
X19870Y-14449D02*
X21050Y-14449D01*
X17500Y-12079D02*
X19870Y-14449D01*
X39799Y-29200D02*
X40500Y-28500D01*
X36200Y-29200D02*
X39799Y-29200D01*
X35500Y-28500D02*
X36200Y-29200D01*
X30000Y-27000D02*
X29500Y-27000D01*
X29500Y-27000D02*
X29000Y-27000D01*
X29500Y-27000D02*
X29500Y-28500D01*
X30005Y-29005D02*
X32983Y-29005D01*
X29500Y-28500D02*
X30005Y-29005D01*
X34994Y-29005D02*
X35500Y-28500D01*
X32983Y-29005D02*
X34994Y-29005D01*
X30000Y-23500D02*
X30000Y-27000D01*
X30500Y-23500D02*
X30000Y-23500D01*
X31000Y-23000D02*
X30500Y-23500D01*
X26000Y-23250D02*
X26000Y-23000D01*
X26250Y-23500D02*
X26000Y-23250D01*
X30000Y-23500D02*
X26250Y-23500D01*
X18069Y-24803D02*
X18500Y-24372D01*
X18069Y-26069D02*
X18069Y-24803D01*
X19000Y-27000D02*
X18069Y-26069D01*
X18500Y-23000D02*
X18500Y-23000D01*
X18500Y-24372D02*
X18500Y-23000D01*
X22544Y-24372D02*
X22981Y-24809D01*
X18500Y-24372D02*
X22544Y-24372D01*
X24540Y-23250D02*
X22981Y-24809D01*
X26000Y-23250D02*
X24540Y-23250D01*
X22981Y-25981D02*
X24000Y-27000D01*
X22981Y-24809D02*
X22981Y-25981D01*
X28500Y-16500D02*
X29500Y-16500D01*
X31500Y-16500D02*
X32000Y-16000D01*
X29500Y-16500D02*
X31500Y-16500D01*
X32983Y-16000D02*
X32000Y-16000D01*
X32983Y-29005D02*
X32983Y-16000D01*
X32983Y-15516D02*
X33500Y-15000D01*
X32983Y-16000D02*
X32983Y-15516D01*
X18500Y-19000D02*
X18500Y-23000D01*
X21500Y-16000D02*
X18500Y-19000D01*
X21050Y-15550D02*
X21500Y-16000D01*
X21050Y-14449D02*
X21050Y-15550D01*
X28000Y-18000D02*
X26000Y-18000D01*
X21000Y-18000D02*
X23500Y-18000D01*
X23500Y-18000D02*
X26000Y-18000D01*
X33500Y-28500D02*
X33500Y-27000D01*
X38500Y-28500D02*
X38500Y-27000D01*
X32000Y-13126D02*
X32000Y-13000D01*
X33373Y-14500D02*
X32000Y-13126D01*
X33614Y-14500D02*
X33373Y-14500D01*
X35000Y-15885D02*
X33614Y-14500D01*
X35000Y-16000D02*
X35000Y-15885D01*
X28500Y-15000D02*
X28000Y-14500D01*
X32000Y-15000D02*
X28500Y-15000D01*
X25000Y-14500D02*
X26500Y-14500D01*
X24500Y-14000D02*
X25000Y-14500D01*
X26500Y-14500D02*
X28000Y-14500D01*
X21500Y-13000D02*
X21500Y-11500D01*
X29000Y-11895D02*
X29000Y-12500D01*
X28177Y-11073D02*
X29000Y-11895D01*
X21926Y-11073D02*
X28177Y-11073D01*
X21500Y-11500D02*
X21926Y-11073D01*
X26000Y-15000D02*
X26500Y-15500D01*
X24500Y-15000D02*
X26000Y-15000D01*
X29000Y-15500D02*
X26500Y-15500D01*
X22356Y-13643D02*
X24500Y-11500D01*
X22356Y-14143D02*
X22356Y-13643D01*
X21500Y-15000D02*
X22356Y-14143D01*
X28000Y-11500D02*
X24500Y-11500D01*
X26000Y-28000D02*
X25500Y-28500D01*
X26000Y-27000D02*
X26000Y-28000D01*
X26000Y-25000D02*
X26000Y-27000D01*
X26000Y-25000D02*
X23500Y-25000D01*
X21000Y-25000D02*
X21000Y-27000D01*
X21000Y-28000D02*
X20500Y-28500D01*
X21000Y-27000D02*
X21000Y-28000D01*
X18500Y-25000D02*
X21000Y-25000D01*
X35000Y-14000D02*
X35000Y-15000D01*
X35434Y-15434D02*
X35000Y-15000D01*
X35434Y-27997D02*
X35434Y-15434D01*
X35770Y-27997D02*
X35434Y-27997D01*
X36777Y-29003D02*
X35770Y-27997D01*
X38996Y-29003D02*
X36777Y-29003D01*
X39500Y-28500D02*
X38996Y-29003D01*
X35002Y-27997D02*
X34500Y-28500D01*
X35434Y-27997D02*
X35002Y-27997D01*
X30500Y-27500D02*
X31000Y-27000D01*
X30500Y-28500D02*
X30500Y-27500D01*
X30000Y-13000D02*
X24500Y-13000D01*
X34397Y-13000D02*
X33500Y-13897D01*
X35000Y-13000D02*
X34397Y-13000D01*
X32170Y-12568D02*
X33500Y-13897D01*
X30431Y-12568D02*
X32170Y-12568D01*
X30000Y-13000D02*
X30431Y-12568D01*
X33500Y-13897D02*
X33500Y-14000D01*
X24500Y-13000D02*
X23500Y-14000D01*
X23500Y-14000D02*
X23000Y-14000D01*
X31000Y-27000D02*
X31000Y-25000D01*
X23500Y-14622D02*
X23500Y-14000D01*
X24377Y-15500D02*
X23500Y-14622D01*
X25333Y-15500D02*
X24377Y-15500D01*
X26136Y-16302D02*
X25333Y-15500D01*
X26909Y-16302D02*
X26136Y-16302D01*
X31433Y-20826D02*
X26909Y-16302D01*
X31433Y-24566D02*
X31433Y-20826D01*
X31000Y-25000D02*
X31433Y-24566D01*
X32000Y-14000D02*
X30500Y-14000D01*
X18000Y-28000D02*
X18000Y-27000D01*
X18500Y-28500D02*
X18000Y-28000D01*
X28500Y-28500D02*
X28000Y-28000D01*
X28000Y-28000D02*
X28000Y-27000D01*
X26793Y-29206D02*
X28000Y-28000D01*
X24206Y-29206D02*
X26793Y-29206D01*
X23500Y-28500D02*
X24206Y-29206D01*
X23500Y-28500D02*
X23000Y-28000D01*
X21797Y-29202D02*
X23000Y-28000D01*
X19202Y-29202D02*
X21797Y-29202D01*
X18500Y-28500D02*
X19202Y-29202D01*
X23000Y-28000D02*
X23000Y-27000D01*
X17500Y-14440D02*
X17500Y-17000D01*
X17500Y-26500D02*
X18000Y-27000D01*
X17500Y-17000D02*
X17500Y-26500D01*
M02*
