G04 (created by PCBNEW (2013-07-07 BZR 4022)-stable) date 2013/11/02 22:19:29*
%MOIN*%
G04 Gerber Fmt 3.4, Leading zero omitted, Abs format*
%FSLAX34Y34*%
G01*
G70*
G90*
G04 APERTURE LIST*
%ADD10C,0.00590551*%
%ADD11C,0.00393701*%
%ADD12C,0.011811*%
G04 APERTURE END LIST*
G54D10*
G54D11*
X13500Y-30500D02*
X13500Y-9500D01*
X43000Y-30500D02*
X13500Y-30500D01*
X43000Y-9500D02*
X43000Y-30500D01*
X13500Y-9500D02*
X43000Y-9500D01*
G54D12*
X12320Y-18087D02*
X12320Y-17806D01*
X12038Y-17778D01*
X12066Y-17806D01*
X12095Y-17862D01*
X12095Y-18003D01*
X12066Y-18059D01*
X12038Y-18087D01*
X11982Y-18115D01*
X11841Y-18115D01*
X11785Y-18087D01*
X11757Y-18059D01*
X11729Y-18003D01*
X11729Y-17862D01*
X11757Y-17806D01*
X11785Y-17778D01*
X12320Y-18312D02*
X12320Y-18678D01*
X12095Y-18481D01*
X12095Y-18565D01*
X12066Y-18622D01*
X12038Y-18650D01*
X11982Y-18678D01*
X11841Y-18678D01*
X11785Y-18650D01*
X11757Y-18622D01*
X11729Y-18565D01*
X11729Y-18397D01*
X11757Y-18340D01*
X11785Y-18312D01*
X11785Y-18931D02*
X11757Y-18959D01*
X11729Y-18931D01*
X11757Y-18903D01*
X11785Y-18931D01*
X11729Y-18931D01*
X12320Y-19156D02*
X12320Y-19521D01*
X12095Y-19325D01*
X12095Y-19409D01*
X12066Y-19465D01*
X12038Y-19493D01*
X11982Y-19521D01*
X11841Y-19521D01*
X11785Y-19493D01*
X11757Y-19465D01*
X11729Y-19409D01*
X11729Y-19240D01*
X11757Y-19184D01*
X11785Y-19156D01*
X12123Y-20028D02*
X11729Y-20028D01*
X12348Y-19887D02*
X11926Y-19746D01*
X11926Y-20112D01*
X12320Y-20449D02*
X12320Y-20506D01*
X12291Y-20562D01*
X12263Y-20590D01*
X12207Y-20618D01*
X12095Y-20646D01*
X11954Y-20646D01*
X11841Y-20618D01*
X11785Y-20590D01*
X11757Y-20562D01*
X11729Y-20506D01*
X11729Y-20449D01*
X11757Y-20393D01*
X11785Y-20365D01*
X11841Y-20337D01*
X11954Y-20309D01*
X12095Y-20309D01*
X12207Y-20337D01*
X12263Y-20365D01*
X12291Y-20393D01*
X12320Y-20449D01*
X11729Y-20899D02*
X12123Y-20899D01*
X12066Y-20899D02*
X12095Y-20928D01*
X12123Y-20984D01*
X12123Y-21068D01*
X12095Y-21124D01*
X12038Y-21152D01*
X11729Y-21152D01*
X12038Y-21152D02*
X12095Y-21181D01*
X12123Y-21237D01*
X12123Y-21321D01*
X12095Y-21377D01*
X12038Y-21406D01*
X11729Y-21406D01*
X11729Y-21687D02*
X12123Y-21687D01*
X12066Y-21687D02*
X12095Y-21715D01*
X12123Y-21771D01*
X12123Y-21856D01*
X12095Y-21912D01*
X12038Y-21940D01*
X11729Y-21940D01*
X12038Y-21940D02*
X12095Y-21968D01*
X12123Y-22024D01*
X12123Y-22109D01*
X12095Y-22165D01*
X12038Y-22193D01*
X11729Y-22193D01*
X12500Y-9500D02*
X12500Y-30500D01*
X13500Y-9500D02*
X11437Y-9500D01*
X13500Y-30500D02*
X11437Y-30500D01*
X12500Y-30500D02*
X12269Y-30056D01*
X12500Y-30500D02*
X12730Y-30056D01*
X12500Y-9500D02*
X12269Y-9943D01*
X12500Y-9500D02*
X12730Y-9943D01*
X26000Y-7616D02*
X26393Y-7616D01*
X26140Y-8207D01*
X26872Y-7813D02*
X26872Y-8207D01*
X26731Y-7588D02*
X26590Y-8010D01*
X26956Y-8010D01*
X27181Y-8151D02*
X27209Y-8179D01*
X27181Y-8207D01*
X27153Y-8179D01*
X27181Y-8151D01*
X27181Y-8207D01*
X27490Y-8207D02*
X27603Y-8207D01*
X27659Y-8179D01*
X27687Y-8151D01*
X27743Y-8066D01*
X27771Y-7954D01*
X27771Y-7729D01*
X27743Y-7673D01*
X27715Y-7645D01*
X27659Y-7616D01*
X27546Y-7616D01*
X27490Y-7645D01*
X27462Y-7673D01*
X27434Y-7729D01*
X27434Y-7870D01*
X27462Y-7926D01*
X27490Y-7954D01*
X27546Y-7982D01*
X27659Y-7982D01*
X27715Y-7954D01*
X27743Y-7926D01*
X27771Y-7870D01*
X27968Y-7616D02*
X28334Y-7616D01*
X28137Y-7841D01*
X28221Y-7841D01*
X28278Y-7870D01*
X28306Y-7898D01*
X28334Y-7954D01*
X28334Y-8095D01*
X28306Y-8151D01*
X28278Y-8179D01*
X28221Y-8207D01*
X28053Y-8207D01*
X27996Y-8179D01*
X27968Y-8151D01*
X28699Y-7616D02*
X28756Y-7616D01*
X28812Y-7645D01*
X28840Y-7673D01*
X28868Y-7729D01*
X28896Y-7841D01*
X28896Y-7982D01*
X28868Y-8095D01*
X28840Y-8151D01*
X28812Y-8179D01*
X28756Y-8207D01*
X28699Y-8207D01*
X28643Y-8179D01*
X28615Y-8151D01*
X28587Y-8095D01*
X28559Y-7982D01*
X28559Y-7841D01*
X28587Y-7729D01*
X28615Y-7673D01*
X28643Y-7645D01*
X28699Y-7616D01*
X29149Y-8207D02*
X29149Y-7813D01*
X29149Y-7870D02*
X29178Y-7841D01*
X29234Y-7813D01*
X29318Y-7813D01*
X29374Y-7841D01*
X29402Y-7898D01*
X29402Y-8207D01*
X29402Y-7898D02*
X29431Y-7841D01*
X29487Y-7813D01*
X29571Y-7813D01*
X29627Y-7841D01*
X29656Y-7898D01*
X29656Y-8207D01*
X29937Y-8207D02*
X29937Y-7813D01*
X29937Y-7870D02*
X29965Y-7841D01*
X30021Y-7813D01*
X30106Y-7813D01*
X30162Y-7841D01*
X30190Y-7898D01*
X30190Y-8207D01*
X30190Y-7898D02*
X30218Y-7841D01*
X30274Y-7813D01*
X30359Y-7813D01*
X30415Y-7841D01*
X30443Y-7898D01*
X30443Y-8207D01*
X13500Y-8500D02*
X43000Y-8500D01*
X13500Y-9500D02*
X13500Y-7437D01*
X43000Y-9500D02*
X43000Y-7437D01*
X43000Y-8500D02*
X42556Y-8730D01*
X43000Y-8500D02*
X42556Y-8269D01*
X13500Y-8500D02*
X13943Y-8730D01*
X13500Y-8500D02*
X13943Y-8269D01*
M02*
